<svg xmlns="http://www.w3.org/2000/svg" width="410" height="404" viewBox="0 0 410 404"><defs><linearGradient id="a" x1="3.63%" x2="99.67%" y1="2.25%" y2="98.08%"><stop stop-color="#41D1FF" offset="0%"/><stop stop-color="#BD34FE" offset="100%"/></linearGradient><linearGradient id="b" x1="3.63%" x2="99.67%" y1="2.25%" y2="98.08%"><stop stop-color="#FFEA83" offset="0%"/><stop stop-color="#FFDD35" offset="8.333%"/><stop stop-color="#FFA800" offset="100%"/></linearGradient></defs><path fill="url(#a)" d="M399.641 59.525C405.236 43.641 391.283 28.2 374.61 31.241L31.308 92.378C15.202 95.268 7.756 113.662 17.778 126.541L205.89 368.482C214.964 380.228 233.75 378.34 240.232 365.094L399.641 59.525Z"/><path fill="url(#b)" d="M292.965 1.574C303.182 -0.969 312.693 7.763 310.19 17.998L259.6 222.971C257.354 232.255 247.665 237.819 238.791 234.335L120.94 188.405C112.057 184.917 108.458 174.126 113.768 166.639L173.612 82.253C177.327 76.885 184.53 74.64 190.847 76.899L261.13 102.118C269.733 105.223 278.574 98.466 277.397 89.481L266.5 7.351C265.099 -3.315 275.231 -11.045 284.392 -7.029L292.965 1.574Z"/></svg>
